<svg width="30" height="30" viewBox="0 0 30 30" fill="none" xmlns="http://www.w3.org/2000/svg">
<g clip-path="url(#clip0_303_2389)">
<path d="M25.2511 23.1937C23.9198 21.0487 20.9892 18.75 14.9986 18.75C9.00797 18.75 6.07922 21.0469 4.74609 23.1937C5.97437 24.7336 7.53406 25.9766 9.30911 26.8304C11.0842 27.6841 13.0289 28.1267 14.9986 28.125C16.9683 28.1267 18.913 27.6841 20.6881 26.8304C22.4631 25.9766 24.0228 24.7336 25.2511 23.1937Z" fill="#5856D6"/>
<path fill-rule="evenodd" clip-rule="evenodd" d="M15 16.875C16.4918 16.875 17.9226 16.2824 18.9775 15.2275C20.0324 14.1726 20.625 12.7418 20.625 11.25C20.625 9.75816 20.0324 8.32742 18.9775 7.27252C17.9226 6.21763 16.4918 5.625 15 5.625C13.5082 5.625 12.0774 6.21763 11.0225 7.27252C9.96763 8.32742 9.375 9.75816 9.375 11.25C9.375 12.7418 9.96763 14.1726 11.0225 15.2275C12.0774 16.2824 13.5082 16.875 15 16.875Z" fill="#5856D6"/>
<path fill-rule="evenodd" clip-rule="evenodd" d="M15 1.875C11.519 1.875 8.18064 3.25781 5.71922 5.71922C3.25781 8.18064 1.875 11.519 1.875 15C1.875 18.481 3.25781 21.8194 5.71922 24.2808C8.18064 26.7422 11.519 28.125 15 28.125C18.481 28.125 21.8194 26.7422 24.2808 24.2808C26.7422 21.8194 28.125 18.481 28.125 15C28.125 11.519 26.7422 8.18064 24.2808 5.71922C21.8194 3.25781 18.481 1.875 15 1.875ZM0 15C0 11.0218 1.58035 7.20644 4.3934 4.3934C7.20644 1.58035 11.0218 0 15 0C18.9782 0 22.7936 1.58035 25.6066 4.3934C28.4196 7.20644 30 11.0218 30 15C30 18.9782 28.4196 22.7936 25.6066 25.6066C22.7936 28.4196 18.9782 30 15 30C11.0218 30 7.20644 28.4196 4.3934 25.6066C1.58035 22.7936 0 18.9782 0 15Z" fill="#5856D6"/>
</g>
<defs>
<clipPath id="clip0_303_2389">
<rect width="30" height="30" fill="white"/>
</clipPath>
</defs>
</svg>
